<?xml version="1.0" encoding="utf-8"?>
<!-- Generator: Adobe Illustrator 15.0.0, SVG Export Plug-In . SVG Version: 6.00 Build 0)  -->
<!DOCTYPE svg PUBLIC "-//W3C//DTD SVG 1.1//EN" "http://www.w3.org/Graphics/SVG/1.1/DTD/svg11.dtd">
<svg version="1.1" id="Layer_1" xmlns="http://www.w3.org/2000/svg" xmlns:xlink="http://www.w3.org/1999/xlink" x="0px" y="0px"
	 width="205px" height="69px" viewBox="0 0 205 69" enable-background="new 0 0 205 69" xml:space="preserve">
<path fill="#006892" d="M31.607,35.382c-1.385-0.001-2.357-0.757-2.907-2.026c-0.442-1.023-0.178-2.217,0.085-2.856l6.273-13.882
	l0.013-7.135l-0.703-1.578c-0.173-0.384,0.03-0.698,0.451-0.698h6.544c0.419,0,0.624,0.314,0.453,0.698l-0.661,1.48v7.233
	l5.225,11.62v-6.602h0.005V3.065c0,0,0-3.065-3.064-3.065H3.063C3.063,0,0,0,0,3.065v38.976c0,0,0,3.063,3.063,3.063h21.813
	c0.037-0.85,0.131-1.696,0.303-2.526c-0.31-0.258-0.617-0.466-0.969-0.663c-0.914,0.867-1.957,1.617-3.068,2.21
	c-0.344,0.184-0.321,0.208-0.589-0.022c-0.248-0.214-0.497-0.423-0.745-0.635c-0.678-0.579-1.352-1.159-2.028-1.739
	c0.421-1.335,1.014-2.624,1.802-3.783c-0.248-0.318-0.506-0.587-0.802-0.858c-1.114,0.425-2.286,0.725-3.465,0.906
	c-0.25,0.04-0.805,0.238-0.969,0.016c-0.18-0.248-0.358-0.487-0.537-0.733c-0.546-0.745-1.09-1.493-1.635-2.238
	c0.899-1.027,1.937-1.924,3.095-2.65c-0.153-0.342-0.32-0.633-0.538-0.943c-1.091,0.033-2.188-0.035-3.275-0.162
	c-0.172-0.022-1.438-0.081-1.501-0.242c-0.074-0.19-0.15-0.382-0.228-0.572c-0.339-0.857-0.672-1.71-1.007-2.566
	c1.268-0.597,2.605-1.06,3.985-1.317c-0.046-0.326-0.123-0.609-0.237-0.917c-1.002-0.238-1.982-0.553-2.949-0.899
	c-0.497-0.18-0.985-0.377-1.467-0.588c-0.288-0.121-0.22-0.173-0.24-0.464c-0.056-0.827-0.112-1.652-0.165-2.476
	c1.445-0.167,2.914-0.176,4.363-0.041c0.06-0.276,0.082-0.518,0.061-0.799c-0.472-0.229-4.172-2.031-4.021-2.505
	c0.235-0.733,0.473-1.461,0.706-2.195c1.459,0.22,2.899,0.564,4.298,1.027c0.155-0.206,0.243-0.373,0.312-0.619
	c-0.34-0.254-3.374-2.677-3.139-2.937c0.459-0.515,0.92-1.022,1.384-1.536c1.344,0.516,2.65,1.111,3.904,1.815
	c0.21-0.117,0.349-0.228,0.502-0.411c-0.837-0.927-1.595-1.923-2.254-2.986c0.64-0.309,1.281-0.616,1.923-0.92
	c1.154,0.702,2.268,1.465,3.31,2.331c0.235-0.048,0.423-0.104,0.638-0.21c-0.541-0.902-0.993-1.857-1.32-2.859
	c0.731-0.091,1.465-0.182,2.199-0.275c0.93,0.802,1.817,1.654,2.613,2.589c0.246,0.019,0.471,0.019,0.711-0.01
	c-0.266-0.825-0.439-1.69-0.451-2.555c0.768,0.098,1.538,0.192,2.312,0.29c0.7,0.832,1.338,1.715,1.884,2.656
	c0.152,0.041,0.313,0.09,0.459,0.133c0.093,0.021,0.186,0.026,0.278,0.038c-0.017-0.725,0.074-1.449,0.316-2.133
	c0.672,0.229,1.461,0.521,2.185,0.766l-0.029,5.655c-1.068-0.311-2.146-0.516-3.211-0.59c-1.671-0.121-3.171,0.081-4.45,0.557
	c-1.325,0.495-2.422,1.289-3.229,2.333c-0.835,1.08-1.27,2.434-1.417,3.998c-0.152,1.61,0.102,3.44,0.831,5.405
	c0.746,2.009,1.909,3.942,3.374,5.701c0.267,0.319,0.55,0.591,0.938,0.972l-0.253,0.367c-0.616-0.597-1.2-1.226-1.746-1.88
	c-1.522-1.821-2.731-3.834-3.506-5.923c-0.76-2.039-1.021-3.938-0.863-5.613c0.156-1.622,0.702-3.026,1.571-4.15
	c0.174-0.229,0.363-0.444,0.564-0.646L18.854,16c-0.42,0.35-0.8,0.742-1.134,1.176c-0.909,1.177-1.48,2.644-1.641,4.34
	c-0.165,1.75,0.11,3.739,0.901,5.87c0.812,2.187,2.078,4.287,3.667,6.199c1.605,1.92,3.52,3.619,5.592,4.991
	c2.059,1.359,4.65,2.381,6.821,2.973c2.132,0.579,4.22,0.746,6.134,0.432c3.086-0.503,6.029-2.595,6.977-5.643
	c0.1-0.317,0.174-0.635,0.236-0.957L31.607,35.382L31.607,35.382z"/>
<polygon fill="#006892" points="91.264,9.711 91.219,9.711 78.773,9.711 78.736,9.711 78.736,9.75 78.736,35.349 78.736,35.387 
	78.773,35.387 91.518,35.387 91.555,35.387 91.555,35.349 91.555,32.19 91.555,32.151 91.518,32.151 82.376,32.151 82.376,23.609 
	89.397,23.609 89.437,23.609 89.437,23.571 89.437,20.487 89.437,20.448 89.397,20.448 82.376,20.448 82.376,12.872 90.736,12.872 
	90.77,12.872 90.774,12.839 91.257,9.756 "/>
<polygon fill="#006892" points="128.333,9.711 128.295,9.711 124.802,9.711 124.765,9.711 124.765,9.75 124.765,20.189 
	116.777,20.189 116.777,9.75 116.777,9.711 116.741,9.711 113.249,9.711 113.211,9.711 113.211,9.75 113.211,35.349 113.211,35.387 
	113.249,35.387 116.741,35.387 116.777,35.387 116.777,35.349 116.777,23.348 124.765,23.348 124.765,35.349 124.765,35.387 
	124.802,35.387 128.295,35.387 128.333,35.387 128.333,35.349 128.333,9.75 "/>
<polygon fill="#006892" points="145.545,9.711 145.501,9.711 133.055,9.711 133.017,9.711 133.017,9.75 133.017,35.349 
	133.017,35.387 133.055,35.387 145.798,35.387 145.835,35.387 145.835,35.349 145.835,32.19 145.835,32.151 145.798,32.151 
	136.658,32.151 136.658,23.609 143.68,23.609 143.719,23.609 143.719,23.571 143.719,20.487 143.719,20.448 143.68,20.448 
	136.658,20.448 136.658,12.872 145.021,12.872 145.05,12.872 145.058,12.839 145.536,9.756 "/>
<path fill="#006892" d="M169.944,9.711h-0.036h-4.904h-0.029l-0.01,0.03l-3.639,15.901c-0.327,1.414-0.612,3.283-0.785,4.662
	l-0.113-0.775c-0.208-1.426-0.422-2.902-0.661-4.035l-3.568-15.752l-0.007-0.03h-0.03h-4.904h-0.032l-0.005,0.035l-1.97,25.599
	l-0.003,0.041h0.042h3.531h0.033l0.002-0.036l1.003-16.571c0.102-1.649,0.142-3.219,0.175-5.039
	c0.196,1.352,0.527,3.083,0.976,5.047l3.828,16.571l0.007,0.027h0.03h3.119h0.03l0.004-0.027l4.197-17.39
	c0.16-0.714,0.44-2.226,0.82-4.386c0.021,1.302,0.115,3.684,0.182,4.713l1.003,17.053l0.002,0.036h0.038h3.528h0.044l-0.003-0.042
	l-1.897-25.598L169.944,9.711z"/>
<path fill="#006892" d="M186.208,9.711h-0.03h-4.456h-0.027l-0.01,0.028l-7.283,25.598l-0.014,0.049h0.051h3.642h0.026l0.008-0.028
	l1.926-7.067h7.484l1.813,7.067l0.008,0.028h0.029h3.903h0.05l-0.014-0.049l-7.099-25.596L186.208,9.711z M180.84,25.204
	l1.885-7.345c0.22-0.849,0.634-2.717,1.112-5.02c0.439,2.178,0.975,4.596,1.079,5.02l1.844,7.345H180.84z"/>
<path fill="#006892" d="M109.603,33.693l-1.635-2.49l-0.023-0.034l-0.032,0.025c-1.293,1.05-2.503,1.479-4.175,1.479
	c-1.982,0-3.736-1.353-4.945-3.807c-0.847-1.732-0.998-3.156-0.998-6.298c0-3.039,0.561-10.107,5.759-10.107
	c1.405,0,2.563,0.476,3.875,1.59l0.031,0.027l0.023-0.033l1.821-2.528l0.021-0.027l-0.024-0.021
	c-1.409-1.333-3.528-2.128-5.671-2.128c-5.755,0-9.773,5.515-9.773,13.412c0,5.021,1.068,7.472,2.794,9.794
	c1.586,2.182,4.537,3.175,6.606,3.175c2.611,0,4.743-0.666,6.341-1.979l0.026-0.021L109.603,33.693z"/>
<path fill="#006892" d="M64.55,9.712h-5.276v25.673h6.542c8.146,0,9.361-8.1,9.361-12.931C75.176,13.643,71.898,9.712,64.55,9.712
	 M65.555,32.283l-2.695,0.021V12.853h2.471c5.312,0,5.926,5.587,5.926,9.789C71.256,29.312,69.496,32.283,65.555,32.283"/>
<path fill="#231F20" d="M62.205,53.234c-0.904,0-1.572-0.306-2.093-0.96c-0.519-0.645-0.826-1.504-0.826-3.008
	c0-1.381,0.317-2.533,1.063-3.292c0.464-0.478,1.052-0.736,1.787-0.736c0.736,0,1.506,0.327,1.992,0.849l-0.476,0.563
	c-0.497-0.441-0.973-0.632-1.493-0.632c-0.815,0-1.346,0.531-1.628,1.348c-0.25,0.736-0.25,1.268-0.25,1.926
	c0,1.105,0.136,1.705,0.453,2.272c0.305,0.544,0.916,0.884,1.561,0.884c0.396,0,0.769-0.159,1.018-0.307v-2.331h-1.288l-0.171-0.79
	h2.331v3.552C63.666,52.954,62.987,53.234,62.205,53.234"/>
<path fill="#231F20" d="M66.467,50.44v0.126c0,0.497,0.024,0.925,0.216,1.29c0.249,0.464,0.678,0.656,1.153,0.656
	c0.476,0,0.871-0.204,1.21-0.531l0.339,0.542c-0.464,0.465-1.052,0.711-1.696,0.711c-1.392,0-2.206-1.119-2.206-2.997
	c0-0.961,0.147-1.604,0.565-2.172c0.396-0.531,0.916-0.76,1.516-0.76c0.555,0,1.052,0.237,1.381,0.635
	c0.418,0.498,0.565,1.018,0.565,2.341v0.156L66.467,50.44L66.467,50.44z M68.391,48.464c-0.158-0.295-0.418-0.485-0.848-0.485
	c-0.725,0-1.042,0.676-1.076,1.808h2.117C68.572,49.207,68.526,48.723,68.391,48.464"/>
<path fill="#231F20" d="M72.189,53.28c-0.634,0-1.313-0.225-1.833-0.589l0.339-0.666c0.488,0.352,1.019,0.543,1.55,0.543
	c0.565,0,0.938-0.407,0.938-0.96c0-0.497-0.407-0.748-0.881-0.917l-0.441-0.157c-0.735-0.263-1.313-0.736-1.313-1.527
	c0-1.042,0.736-1.752,1.776-1.752c0.555,0,1.11,0.171,1.539,0.453l-0.327,0.666c-0.43-0.238-0.77-0.409-1.199-0.409
	c-0.531,0-0.872,0.396-0.872,0.826c0,0.485,0.228,0.747,0.803,0.951l0.453,0.16c0.679,0.236,1.368,0.712,1.368,1.559
	C74.089,52.581,73.32,53.28,72.189,53.28"/>
<path fill="#231F20" d="M76.078,50.44v0.126c0,0.497,0.023,0.925,0.216,1.29c0.249,0.464,0.679,0.656,1.153,0.656
	c0.477,0,0.872-0.204,1.211-0.531l0.339,0.542c-0.464,0.465-1.053,0.711-1.697,0.711c-1.391,0-2.205-1.119-2.205-2.997
	c0-0.961,0.146-1.604,0.565-2.172c0.396-0.531,0.917-0.76,1.516-0.76c0.555,0,1.052,0.237,1.379,0.635
	c0.419,0.498,0.565,1.018,0.565,2.341v0.156L76.078,50.44L76.078,50.44z M78.002,48.464c-0.159-0.295-0.419-0.485-0.85-0.485
	c-0.723,0-1.04,0.676-1.074,1.808h2.116C78.183,49.207,78.137,48.723,78.002,48.464"/>
<path fill="#231F20" d="M81.314,53.224c-0.272,0-0.499-0.076-0.656-0.249c-0.169-0.18-0.238-0.451-0.238-0.893v-5.85
	c0-0.543-0.068-0.913-0.135-1.176l0.87-0.17c0.101,0.464,0.147,0.837,0.147,1.356v5.62c0,0.51,0.057,0.645,0.293,0.645
	c0.036,0,0.07-0.009,0.126-0.023l0.169,0.612C81.686,53.202,81.55,53.224,81.314,53.224"/>
<path fill="#231F20" d="M83.937,53.224c-0.271,0-0.498-0.076-0.656-0.249c-0.169-0.18-0.237-0.451-0.237-0.893v-5.85
	c0-0.543-0.068-0.913-0.136-1.176l0.871-0.17c0.102,0.464,0.146,0.837,0.146,1.356v5.62c0,0.51,0.057,0.645,0.294,0.645
	c0.035,0,0.069-0.009,0.125-0.023l0.17,0.612C84.311,53.202,84.175,53.224,83.937,53.224"/>
<path fill="#231F20" d="M87.046,53.28c-0.633,0-1.312-0.225-1.833-0.589l0.339-0.666c0.487,0.352,1.017,0.543,1.55,0.543
	c0.565,0,0.939-0.407,0.939-0.96c0-0.497-0.408-0.748-0.882-0.917l-0.441-0.157c-0.736-0.263-1.313-0.736-1.313-1.527
	c0-1.042,0.736-1.752,1.776-1.752c0.555,0,1.109,0.171,1.539,0.453l-0.328,0.666c-0.43-0.238-0.769-0.409-1.199-0.409
	c-0.531,0-0.871,0.396-0.871,0.826c0,0.485,0.227,0.747,0.803,0.951l0.452,0.16c0.68,0.236,1.369,0.712,1.369,1.559
	C88.946,52.581,88.177,53.28,87.046,53.28"/>
<path fill="#231F20" d="M91.751,53.234c-0.702,0-1.222-0.248-1.573-0.813c-0.327-0.53-0.486-1.2-0.486-2.047
	c0-1.222,0.295-1.935,0.735-2.422c0.385-0.428,0.85-0.645,1.38-0.645c0.624,0,1.02,0.226,1.358,0.563l-0.441,0.589
	c-0.307-0.28-0.565-0.396-0.939-0.396c-0.396,0-0.689,0.226-0.883,0.645c-0.26,0.565-0.271,1.146-0.271,1.811
	c0,1.143,0.386,2.013,1.166,2.013c0.396,0,0.746-0.169,1.03-0.543l0.475,0.543C92.836,53.076,92.36,53.234,91.751,53.234"/>
<path fill="#231F20" d="M97.121,53.112v-3.869c0-0.396-0.046-0.644-0.17-0.791c-0.115-0.136-0.307-0.237-0.542-0.237
	c-0.431,0-0.941,0.225-1.337,0.78v4.117h-0.869v-6.923c0-0.364-0.034-0.794-0.125-1.178l0.871-0.156
	c0.078,0.371,0.123,0.868,0.123,1.345v1.224c0,0.258-0.011,0.462-0.033,0.688c0.418-0.452,0.984-0.711,1.605-0.711
	c0.442,0,0.827,0.171,1.054,0.451c0.237,0.309,0.293,0.782,0.293,1.155v4.104h-0.87V53.112z"/>
<path fill="#231F20" d="M102.811,53.327c-0.363-0.172-0.601-0.442-0.69-0.794c-0.44,0.512-0.837,0.724-1.401,0.724
	c-1.211,0-1.584-0.85-1.584-1.642c0-1.255,0.938-1.98,2.556-1.98c0.068,0,0.248,0,0.34,0.012v-0.472
	c0-0.317-0.034-0.589-0.092-0.725c-0.089-0.226-0.316-0.407-0.678-0.407c-0.555,0-1.21,0.306-1.538,0.635l-0.432-0.634
	c0.646-0.485,1.357-0.734,2.081-0.734c0.713,0,1.211,0.316,1.415,0.905c0.102,0.295,0.112,0.679,0.112,0.971
	c0,0.658-0.043,2.353-0.043,2.546c0,0.577,0.078,0.746,0.396,0.951L102.811,53.327z M102.006,50.283
	c-0.077-0.012-0.261-0.024-0.339-0.024c-1.076,0-1.595,0.485-1.595,1.292c0,0.633,0.27,1.005,0.803,1.005
	c0.466,0,0.906-0.317,1.108-0.803L102.006,50.283z"/>
<path fill="#231F20" d="M106.969,45.813c-0.182-0.123-0.419-0.202-0.68-0.202c-0.406,0-0.634,0.371-0.634,0.972v0.894h1.323
	l-0.237,0.681h-1.086v4.952h-0.916v-4.952h-0.463v-0.679h0.463c-0.012-0.248-0.032-0.759-0.032-0.851
	c0-0.838,0.362-1.242,0.589-1.435c0.246-0.206,0.541-0.296,0.894-0.296c0.43,0,0.804,0.09,1.098,0.307L106.969,45.813z"/>
<path fill="#231F20" d="M108.743,53.292c-0.261,0-0.454-0.068-0.656-0.158c-0.339-0.147-0.51-0.555-0.51-1.144v-3.823h-0.622v-0.712
	h0.622c0-0.372,0.031-0.94,0.075-1.448l0.883-0.193c-0.058,0.679-0.078,1.222-0.078,1.643h1.203l-0.205,0.711h-1.019v3.575
	c0,0.644,0.159,0.858,0.635,0.858c0.214,0,0.292-0.023,0.428-0.102l0.161,0.554C109.354,53.214,109.094,53.292,108.743,53.292"/>
<path fill="#231F20" d="M115.153,45.813c-0.182-0.123-0.416-0.202-0.679-0.202c-0.407,0-0.635,0.371-0.635,0.972v0.894h1.325
	l-0.237,0.681h-1.088v4.952h-0.913v-4.952h-0.467v-0.679h0.466c-0.012-0.248-0.033-0.759-0.033-0.851
	c0-0.838,0.361-1.242,0.589-1.435c0.248-0.206,0.543-0.296,0.893-0.296c0.43,0,0.806,0.09,1.1,0.307L115.153,45.813z"/>
<path fill="#231F20" d="M119.167,53.324c-0.304-0.292-0.395-0.473-0.463-0.822c-0.384,0.53-0.85,0.803-1.54,0.803
	c-0.417,0-0.747-0.103-0.982-0.318c-0.386-0.338-0.476-0.825-0.476-1.392v-4.128l0.857-0.138v4.189c0,0.483,0.071,0.731,0.283,0.904
	c0.147,0.115,0.317,0.172,0.575,0.172c0.52,0,0.859-0.352,1.164-0.907v-4.206l0.86-0.115v4.144c0,0.701,0.102,0.973,0.339,1.232
	L119.167,53.324z M116.556,46.644c-0.328,0-0.588-0.271-0.588-0.589c0-0.318,0.249-0.577,0.563-0.577
	c0.329,0,0.589,0.261,0.589,0.577C117.12,46.37,116.872,46.644,116.556,46.644 M118.625,46.644c-0.329,0-0.588-0.271-0.588-0.589
	c0-0.318,0.247-0.577,0.564-0.577c0.327,0,0.589,0.261,0.589,0.577C119.193,46.37,118.94,46.644,118.625,46.644"/>
<path fill="#231F20" d="M123.307,48.305c-0.104-0.032-0.181-0.058-0.263-0.058c-0.249,0-0.543,0.103-0.745,0.328
	c-0.193,0.227-0.271,0.441-0.271,0.792v3.745h-0.872v-4.321c0-0.363-0.031-0.826-0.178-1.266l0.858-0.217
	c0.102,0.238,0.158,0.465,0.158,0.747v0.078c0.339-0.587,0.746-0.848,1.356-0.848c0.104,0,0.227,0.03,0.306,0.067L123.307,48.305z"
	/>
<path fill="#231F20" d="M129.141,53.202c-0.645,0-1.539-0.339-1.98-0.973c-0.529-0.758-0.813-1.459-0.813-2.963
	c0-2.275,1.144-4.04,2.885-4.04c0.655,0,1.266,0.27,1.706,0.666l-0.497,0.634c-0.396-0.326-0.747-0.511-1.222-0.511
	c-1.596,0-1.878,2.027-1.878,3.305c0,0.836,0,1.188,0.249,1.765c0.362,0.848,0.984,1.356,1.696,1.356c0.497,0,0.869-0.102,1.3-0.43
	l0.431,0.645C130.488,53.078,129.854,53.202,129.141,53.202"/>
<path fill="#231F20" d="M135.065,53.112v-3.869c0-0.396-0.045-0.644-0.172-0.791c-0.112-0.136-0.304-0.237-0.54-0.237
	c-0.432,0-0.941,0.225-1.335,0.78v4.117h-0.874v-6.923c0-0.364-0.032-0.794-0.123-1.178l0.871-0.156
	c0.08,0.371,0.126,0.868,0.126,1.345v1.224c0,0.258-0.016,0.462-0.036,0.688c0.421-0.452,0.985-0.711,1.607-0.711
	c0.442,0,0.826,0.171,1.053,0.451c0.235,0.309,0.293,0.782,0.293,1.155v4.104h-0.87V53.112z"/>
<path fill="#231F20" d="M138.287,50.44v0.126c0,0.497,0.022,0.925,0.215,1.29c0.25,0.464,0.68,0.656,1.153,0.656
	c0.475,0,0.87-0.204,1.211-0.531l0.34,0.542c-0.466,0.465-1.054,0.711-1.697,0.711c-1.392,0-2.206-1.119-2.206-2.997
	c0-0.961,0.146-1.604,0.563-2.172c0.397-0.531,0.916-0.76,1.517-0.76c0.556,0,1.053,0.237,1.381,0.635
	c0.418,0.498,0.564,1.018,0.564,2.341v0.156L138.287,50.44L138.287,50.44z M140.211,48.464c-0.159-0.295-0.417-0.485-0.85-0.485
	c-0.723,0-1.04,0.676-1.074,1.808h2.116C140.392,49.207,140.346,48.723,140.211,48.464"/>
<path fill="#231F20" d="M147.935,53.112v-4.198c0-0.554-0.216-0.813-0.612-0.813c-0.408,0-0.747,0.182-1.221,0.656v4.354h-0.882
	v-4.084c0-0.318-0.013-0.556-0.126-0.712c-0.101-0.147-0.26-0.181-0.485-0.181c-0.352,0-0.666,0.172-1.178,0.634v4.346h-0.849V48.78
	c0-0.51-0.066-0.905-0.18-1.222l0.852-0.236c0.101,0.263,0.157,0.476,0.157,0.736c0.341-0.419,0.896-0.749,1.425-0.749
	c0.5,0,0.961,0.206,1.166,0.761c0.451-0.512,1.029-0.761,1.56-0.761c0.78,0,1.255,0.659,1.255,1.543v4.263L147.935,53.112
	L147.935,53.112z"/>
<path fill="#231F20" d="M150.939,46.494c-0.384,0-0.69-0.305-0.69-0.689s0.317-0.69,0.701-0.69c0.385,0,0.69,0.306,0.69,0.69
	S151.323,46.494,150.939,46.494 M150.532,53.112v-5.655l0.905-0.125v5.78H150.532z"/>
<path fill="#231F20" d="M154.512,53.28c-0.633,0-1.311-0.225-1.831-0.589l0.338-0.666c0.487,0.352,1.018,0.543,1.549,0.543
	c0.565,0,0.938-0.407,0.938-0.96c0-0.497-0.407-0.748-0.881-0.917l-0.442-0.157c-0.733-0.263-1.311-0.736-1.311-1.527
	c0-1.042,0.736-1.752,1.776-1.752c0.554,0,1.108,0.171,1.538,0.453l-0.325,0.666c-0.431-0.238-0.77-0.409-1.202-0.409
	c-0.531,0-0.869,0.396-0.869,0.826c0,0.485,0.225,0.747,0.805,0.951l0.453,0.16c0.678,0.236,1.368,0.712,1.368,1.559
	C156.413,52.581,155.644,53.28,154.512,53.28"/>
<path fill="#231F20" d="M159.433,53.234c-0.701,0-1.222-0.248-1.573-0.813c-0.327-0.53-0.485-1.2-0.485-2.047
	c0-1.222,0.292-1.935,0.733-2.422c0.385-0.428,0.849-0.645,1.382-0.645c0.62,0,1.018,0.226,1.355,0.563l-0.441,0.589
	c-0.307-0.28-0.564-0.396-0.938-0.396c-0.397,0-0.692,0.226-0.884,0.645c-0.26,0.565-0.27,1.146-0.27,1.811
	c0,1.143,0.385,2.013,1.165,2.013c0.396,0,0.745-0.169,1.03-0.543l0.472,0.543C160.518,53.076,160.041,53.234,159.433,53.234"/>
<path fill="#231F20" d="M164.973,53.112v-3.869c0-0.396-0.044-0.644-0.172-0.791c-0.112-0.136-0.305-0.237-0.543-0.237
	c-0.427,0-0.938,0.225-1.334,0.78v4.117h-0.871v-6.923c0-0.364-0.034-0.794-0.122-1.178l0.87-0.156
	c0.077,0.371,0.123,0.868,0.123,1.345v1.224c0,0.258-0.013,0.462-0.035,0.688c0.418-0.452,0.983-0.711,1.607-0.711
	c0.441,0,0.823,0.171,1.054,0.451c0.234,0.309,0.291,0.782,0.291,1.155v4.104h-0.868V53.112z"/>
<path fill="#231F20" d="M168.194,50.44v0.126c0,0.497,0.023,0.925,0.215,1.29c0.248,0.464,0.679,0.656,1.153,0.656
	c0.473,0,0.87-0.204,1.209-0.531l0.341,0.542c-0.467,0.465-1.055,0.711-1.697,0.711c-1.393,0-2.206-1.119-2.206-2.997
	c0-0.961,0.148-1.604,0.565-2.172c0.396-0.531,0.918-0.76,1.516-0.76c0.555,0,1.054,0.237,1.38,0.635
	c0.417,0.498,0.565,1.018,0.565,2.341v0.156L168.194,50.44L168.194,50.44z M170.116,48.464c-0.156-0.295-0.417-0.485-0.847-0.485
	c-0.725,0-1.042,0.676-1.075,1.808h2.115C170.298,49.207,170.253,48.723,170.116,48.464"/>
<polygon fill="#231F20" points="177.699,46.165 175.876,46.165 175.876,53.112 174.983,53.112 174.983,46.165 173.195,46.165 
	173.195,45.341 177.743,45.341 "/>
<path fill="#231F20" d="M178.703,50.44v0.126c0,0.497,0.024,0.925,0.215,1.29c0.251,0.464,0.678,0.656,1.153,0.656
	c0.475,0,0.872-0.204,1.211-0.531l0.34,0.542c-0.466,0.465-1.055,0.711-1.697,0.711c-1.392,0-2.203-1.119-2.203-2.997
	c0-0.961,0.145-1.604,0.563-2.172c0.396-0.531,0.915-0.76,1.514-0.76c0.557,0,1.055,0.237,1.381,0.635
	c0.418,0.498,0.565,1.018,0.565,2.341v0.156L178.703,50.44L178.703,50.44z M180.627,48.464c-0.159-0.295-0.419-0.485-0.853-0.485
	c-0.719,0-1.04,0.676-1.071,1.808h2.114C180.807,49.207,180.76,48.723,180.627,48.464"/>
<path fill="#231F20" d="M184.774,53.234c-0.701,0-1.222-0.248-1.571-0.813c-0.329-0.53-0.486-1.2-0.486-2.047
	c0-1.222,0.293-1.935,0.733-2.422c0.386-0.428,0.851-0.645,1.381-0.645c0.623,0,1.019,0.226,1.358,0.563l-0.442,0.589
	c-0.306-0.28-0.565-0.396-0.94-0.396c-0.396,0-0.688,0.226-0.88,0.645c-0.261,0.565-0.271,1.146-0.271,1.811
	c0,1.143,0.382,2.013,1.164,2.013c0.396,0,0.747-0.169,1.029-0.543l0.473,0.543C185.861,53.076,185.387,53.234,184.774,53.234"/>
<path fill="#231F20" d="M190.144,53.112v-3.869c0-0.396-0.046-0.644-0.171-0.791c-0.114-0.136-0.305-0.237-0.543-0.237
	c-0.431,0-0.94,0.225-1.336,0.78v4.117h-0.872v-6.923c0-0.364-0.032-0.794-0.121-1.178l0.868-0.156
	c0.079,0.371,0.123,0.868,0.123,1.345v1.224c0,0.258-0.012,0.462-0.032,0.688c0.416-0.452,0.983-0.711,1.605-0.711
	c0.439,0,0.826,0.171,1.053,0.451c0.237,0.309,0.294,0.782,0.294,1.155v4.104h-0.868V53.112z"/>
<path fill="#231F20" d="M195.591,53.112v-3.855c0-0.566-0.043-0.761-0.178-0.94c-0.102-0.136-0.294-0.226-0.512-0.226
	c-0.361,0-0.904,0.27-1.266,0.688v4.334h-0.859v-4.319c0-0.339-0.031-0.794-0.178-1.257l0.837-0.214
	c0.077,0.159,0.17,0.407,0.17,0.734c0.521-0.521,1.006-0.725,1.537-0.725c0.409,0,0.771,0.183,1.009,0.467
	c0.235,0.28,0.316,0.645,0.316,1.017v4.297H195.591L195.591,53.112z"/>
<path fill="#231F20" d="M198.646,46.494c-0.386,0-0.69-0.305-0.69-0.689s0.315-0.69,0.7-0.69c0.386,0,0.69,0.306,0.69,0.69
	S199.028,46.494,198.646,46.494 M198.239,53.112v-5.655l0.903-0.125v5.78H198.239z"/>
<path fill="#231F20" d="M200.839,53.112v-6.879c0-0.497-0.077-0.938-0.146-1.209l0.881-0.169c0.069,0.338,0.136,0.804,0.136,1.378
	v6.879H200.839z M203.894,53.112l-2.149-3.179l1.766-2.477h1.04l-1.832,2.452L205,53.112H203.894z"/>
<path fill="#231F20" d="M63.032,66.753c-0.305-0.294-0.396-0.473-0.464-0.824c-0.384,0.53-0.849,0.805-1.539,0.805
	c-0.418,0-0.747-0.104-0.983-0.317c-0.385-0.34-0.476-0.825-0.476-1.393v-4.129l0.86-0.136v4.188c0,0.485,0.068,0.733,0.282,0.904
	c0.147,0.113,0.317,0.17,0.577,0.17c0.521,0,0.86-0.351,1.165-0.904v-4.211l0.86-0.113v4.14c0,0.705,0.103,0.973,0.339,1.236
	L63.032,66.753z"/>
<path fill="#231F20" d="M67.894,66.539v-3.856c0-0.565-0.044-0.758-0.182-0.939c-0.101-0.135-0.292-0.227-0.508-0.227
	c-0.362,0-0.905,0.271-1.267,0.689v4.336h-0.859v-4.32c0-0.341-0.034-0.795-0.181-1.255l0.837-0.218
	c0.079,0.159,0.17,0.407,0.17,0.736c0.521-0.519,1.007-0.725,1.538-0.725c0.408,0,0.77,0.182,1.007,0.466
	c0.237,0.283,0.317,0.644,0.317,1.019v4.297L67.894,66.539L67.894,66.539z"/>
<path fill="#231F20" d="M73.558,66.539c-0.067-0.182-0.101-0.371-0.113-0.556c-0.327,0.431-0.701,0.645-1.255,0.645
	c-1.583,0-2.001-1.55-2.001-2.861c0-1.222,0.52-2.975,2.013-2.975c0.487,0,0.951,0.228,1.234,0.623
	c-0.012-0.251-0.022-0.564-0.022-0.853v-2.283l0.87,0.146v6.335c0,0.76,0.034,1.395,0.147,1.778L73.558,66.539L73.558,66.539z
	 M73.4,62.05c-0.282-0.375-0.623-0.52-1.086-0.52c-1.086,0-1.165,1.458-1.165,2.25c0,0.791,0.012,2.103,1.108,2.103
	c0.463,0,0.95-0.249,1.142-0.69V62.05z"/>
<path fill="#231F20" d="M81.789,66.29c-0.362,0.17-0.667,0.249-1.629,0.249h-1.843v-7.771h1.176c1.21,0,1.437,0.077,1.787,0.19
	c0.713,0.226,1.244,0.972,1.244,1.753c0,0.792-0.497,1.484-1.3,1.708c0.973,0.159,1.595,0.781,1.595,1.957
	C82.818,65.226,82.435,65.983,81.789,66.29 M80.116,59.571H79.2v2.522h1.007c0.926,0,1.324-0.384,1.324-1.266
	C81.531,59.899,80.919,59.571,80.116,59.571 M80.229,62.895H79.2v2.853h1.244c1.007,0,1.37-0.555,1.37-1.438
	C81.812,63.226,81.155,62.895,80.229,62.895"/>
<path fill="#231F20" d="M84.649,59.921c-0.385,0-0.69-0.304-0.69-0.69c0-0.384,0.316-0.689,0.701-0.689
	c0.385,0,0.69,0.306,0.69,0.689C85.35,59.617,85.033,59.921,84.649,59.921 M84.242,66.539v-5.655l0.905-0.125v5.78H84.242z"/>
<path fill="#231F20" d="M88.596,66.687c-1.686,0-2.149-1.608-2.149-3.01c0-1.356,0.497-2.965,2.126-2.965
	c1.707,0,2.172,1.661,2.172,3.065C90.745,65.148,90.237,66.687,88.596,66.687 M89.535,62.105c-0.192-0.464-0.565-0.679-0.973-0.679
	c-0.419,0-0.781,0.228-0.939,0.602c-0.158,0.371-0.226,0.927-0.226,1.527c0,0.703,0.09,1.494,0.282,1.865
	c0.171,0.328,0.533,0.532,0.938,0.532c0.499,0,0.849-0.308,0.996-0.835c0.103-0.367,0.137-0.795,0.137-1.295
	C89.751,63.124,89.691,62.489,89.535,62.105"/>
<path fill="#231F20" d="M93.22,66.72c-0.261,0-0.452-0.068-0.656-0.156c-0.34-0.147-0.509-0.558-0.509-1.146v-3.823h-0.622v-0.713
	h0.622c0-0.372,0.033-0.939,0.078-1.448l0.882-0.193c-0.057,0.679-0.078,1.222-0.078,1.642h1.199l-0.204,0.712h-1.017v3.574
	c0,0.645,0.157,0.859,0.633,0.859c0.215,0,0.294-0.022,0.43-0.101l0.158,0.554C93.832,66.641,93.571,66.72,93.22,66.72"/>
<path fill="#231F20" d="M95.889,63.87v0.123c0,0.498,0.023,0.927,0.216,1.291c0.249,0.465,0.678,0.656,1.154,0.656
	c0.474,0,0.87-0.205,1.208-0.53l0.339,0.543c-0.463,0.466-1.052,0.712-1.694,0.712c-1.394,0-2.206-1.118-2.206-2.995
	c0-0.962,0.147-1.606,0.564-2.174c0.396-0.532,0.916-0.762,1.515-0.762c0.557,0,1.055,0.239,1.381,0.635
	c0.418,0.497,0.565,1.02,0.565,2.341v0.157h-3.042V63.87z M97.811,61.891c-0.157-0.295-0.417-0.487-0.848-0.487
	c-0.724,0-1.042,0.679-1.075,1.811h2.116C97.993,62.637,97.948,62.149,97.811,61.891"/>
<path fill="#231F20" d="M101.96,66.665c-0.7,0-1.222-0.249-1.572-0.813c-0.326-0.532-0.486-1.2-0.486-2.048
	c0-1.221,0.294-1.936,0.734-2.421c0.386-0.429,0.851-0.646,1.381-0.646c0.623,0,1.019,0.226,1.358,0.564l-0.442,0.59
	c-0.305-0.282-0.563-0.397-0.938-0.397c-0.396,0-0.69,0.226-0.882,0.646c-0.261,0.564-0.272,1.145-0.272,1.811
	c0,1.142,0.385,2.013,1.165,2.013c0.396,0,0.746-0.171,1.03-0.543l0.475,0.543C103.046,66.505,102.571,66.665,101.96,66.665"/>
<path fill="#231F20" d="M107.162,66.539V62.67c0-0.396-0.046-0.645-0.173-0.791c-0.112-0.136-0.305-0.237-0.543-0.237
	c-0.428,0-0.939,0.225-1.334,0.78v4.117h-0.872v-6.923c0-0.363-0.032-0.794-0.122-1.178l0.87-0.156
	c0.078,0.369,0.124,0.869,0.124,1.345v1.224c0,0.258-0.014,0.463-0.034,0.688c0.416-0.452,0.983-0.712,1.606-0.712
	c0.44,0,0.824,0.173,1.053,0.451c0.236,0.308,0.294,0.782,0.294,1.154v4.106L107.162,66.539L107.162,66.539z"/>
<path fill="#231F20" d="M112.609,66.539v-3.856c0-0.565-0.044-0.758-0.18-0.939c-0.1-0.135-0.293-0.227-0.508-0.227
	c-0.365,0-0.908,0.271-1.268,0.689v4.336h-0.859v-4.32c0-0.341-0.036-0.795-0.183-1.255l0.837-0.218
	c0.08,0.159,0.173,0.407,0.173,0.736c0.518-0.519,1.005-0.725,1.541-0.725c0.405,0,0.766,0.182,1.005,0.466
	c0.237,0.283,0.317,0.644,0.317,1.019v4.297L112.609,66.539L112.609,66.539z"/>
<path fill="#231F20" d="M116.942,66.687c-1.688,0-2.15-1.608-2.15-3.01c0-1.356,0.497-2.965,2.126-2.965
	c1.709,0,2.174,1.661,2.174,3.065C119.09,65.148,118.581,66.687,116.942,66.687 M117.881,62.105
	c-0.192-0.464-0.567-0.679-0.973-0.679c-0.418,0-0.781,0.228-0.939,0.602c-0.157,0.371-0.227,0.927-0.227,1.527
	c0,0.703,0.093,1.494,0.283,1.865c0.17,0.328,0.531,0.532,0.938,0.532c0.497,0,0.849-0.308,0.996-0.835
	c0.104-0.367,0.136-0.795,0.136-1.295C118.094,63.124,118.037,62.489,117.881,62.105"/>
<path fill="#231F20" d="M121.294,66.652c-0.271,0-0.497-0.08-0.657-0.249c-0.171-0.181-0.235-0.453-0.235-0.895V59.66
	c0-0.543-0.07-0.913-0.139-1.176l0.872-0.17c0.102,0.464,0.147,0.837,0.147,1.355v5.621c0,0.51,0.058,0.645,0.294,0.645
	c0.032,0,0.069-0.012,0.123-0.021l0.172,0.61C121.666,66.628,121.53,66.652,121.294,66.652"/>
<path fill="#231F20" d="M124.732,66.687c-1.688,0-2.149-1.608-2.149-3.01c0-1.356,0.497-2.965,2.126-2.965
	c1.709,0,2.175,1.661,2.175,3.065C126.881,65.148,126.372,66.687,124.732,66.687 M125.671,62.105
	c-0.191-0.464-0.566-0.679-0.973-0.679c-0.416,0-0.781,0.228-0.938,0.602c-0.159,0.371-0.228,0.927-0.228,1.527
	c0,0.703,0.092,1.494,0.284,1.865c0.171,0.328,0.53,0.532,0.938,0.532c0.498,0,0.85-0.308,0.997-0.835
	c0.101-0.367,0.133-0.795,0.133-1.295C125.884,63.124,125.829,62.489,125.671,62.105"/>
<path fill="#231F20" d="M131.54,61.719c-0.123,0-0.271-0.033-0.329-0.056c0.182,0.262,0.294,0.574,0.294,0.939
	c0,1.074-0.722,1.899-2.091,1.899c-0.416,0.225-0.543,0.396-0.543,0.541c0,0.238,0.238,0.282,0.467,0.282h0.858
	c0.938,0,1.673,0.477,1.673,1.496c0,1.017-0.619,1.835-2.036,1.835c-1.596,0-2.148-0.669-2.148-1.439
	c0-0.205,0.034-0.384,0.102-0.613l0.883-0.067c-0.069,0.124-0.113,0.326-0.113,0.498c0,0.712,0.532,0.938,1.222,0.938
	c0.792,0,1.162-0.441,1.162-1.028c0-0.813-0.497-0.871-1.176-0.871c-0.341,0-0.511-0.013-0.766-0.013
	c-0.614,0-0.963-0.294-0.963-0.804c0-0.407,0.235-0.721,0.881-0.96c-0.654-0.236-1.119-0.884-1.119-1.617
	c0-1.163,0.793-1.911,1.88-1.911c0.76,0,0.914,0.317,1.436,0.317c0.262,0,0.487-0.068,0.725-0.248l0.496,0.61
	C132.048,61.675,131.821,61.719,131.54,61.719 M129.65,61.494c-0.646,0-0.895,0.418-0.895,1.163c0,0.691,0.239,1.123,0.905,1.123
	c0.622,0,0.859-0.42,0.859-1.146C130.521,61.902,130.33,61.494,129.65,61.494"/>
<path fill="#231F20" d="M133.539,59.921c-0.386,0-0.69-0.304-0.69-0.69c0-0.384,0.315-0.689,0.702-0.689
	c0.384,0,0.689,0.306,0.689,0.689C134.24,59.617,133.923,59.921,133.539,59.921 M133.133,66.539v-5.655l0.904-0.125v5.78H133.133z"
	/>
<path fill="#231F20" d="M136.433,63.87v0.123c0,0.498,0.023,0.927,0.214,1.291c0.251,0.465,0.68,0.656,1.155,0.656
	c0.474,0,0.869-0.205,1.21-0.53l0.338,0.543c-0.465,0.466-1.053,0.712-1.694,0.712c-1.393,0-2.206-1.118-2.206-2.995
	c0-0.962,0.146-1.606,0.564-2.174c0.396-0.532,0.915-0.762,1.517-0.762c0.555,0,1.054,0.239,1.38,0.635
	c0.418,0.497,0.563,1.02,0.563,2.341v0.157h-3.042L136.433,63.87L136.433,63.87z M138.355,61.891
	c-0.158-0.295-0.416-0.487-0.849-0.487c-0.724,0-1.04,0.679-1.074,1.811h2.115C138.539,62.637,138.493,62.149,138.355,61.891"/>
<path fill="#231F20" d="M143.702,63.87v0.123c0,0.498,0.025,0.927,0.216,1.291c0.249,0.465,0.679,0.656,1.154,0.656
	c0.475,0,0.87-0.205,1.211-0.53l0.338,0.543c-0.467,0.466-1.055,0.712-1.696,0.712c-1.393,0-2.206-1.118-2.206-2.995
	c0-0.962,0.148-1.606,0.564-2.174c0.398-0.532,0.915-0.762,1.517-0.762c0.556,0,1.052,0.239,1.38,0.635
	c0.416,0.497,0.564,1.02,0.564,2.341v0.157h-3.043L143.702,63.87L143.702,63.87z M145.625,61.891
	c-0.157-0.295-0.416-0.487-0.846-0.487c-0.726,0-1.041,0.679-1.077,1.811h2.116C145.807,62.637,145.763,62.149,145.625,61.891"/>
<path fill="#231F20" d="M148.564,66.687c-0.407,0-0.733-0.354-0.733-0.758c0-0.409,0.326-0.728,0.733-0.728
	c0.408,0,0.736,0.319,0.736,0.728C149.301,66.333,148.973,66.687,148.564,66.687"/>
<path fill="#231F20" d="M153.158,66.539h-0.973l-2.251-7.771h0.959l1.371,4.999c0.17,0.619,0.382,1.821,0.408,1.935
	c0.011-0.067,0.225-1.119,0.44-1.878l1.39-5.056h0.918L153.158,66.539z"/>
<path fill="#231F20" d="M155.375,66.687c-0.407,0-0.734-0.354-0.734-0.758c0-0.409,0.327-0.728,0.734-0.728s0.735,0.319,0.735,0.728
	C156.11,66.333,155.782,66.687,155.375,66.687"/>
</svg>
