<?xml version="1.0" encoding="UTF-8" standalone="no"?>
<svg
   xmlns:dc="http://purl.org/dc/elements/1.1/"
   xmlns:cc="http://creativecommons.org/ns#"
   xmlns:rdf="http://www.w3.org/1999/02/22-rdf-syntax-ns#"
   xmlns:svg="http://www.w3.org/2000/svg"
   xmlns="http://www.w3.org/2000/svg"
   xmlns:sodipodi="http://sodipodi.sourceforge.net/DTD/sodipodi-0.dtd"
   xmlns:inkscape="http://www.inkscape.org/namespaces/inkscape"
   width="29.999998cm"
   height="274.35001pt"
   id="svg2"
   sodipodi:version="0.32"
   inkscape:version="0.92.1 r15371"
   sodipodi:docname="bibtex.svg"
   version="1.0">
  <metadata
     id="metadata27">
    <rdf:RDF>
      <cc:Work
         rdf:about="">
        <dc:format>image/svg+xml</dc:format>
        <dc:type
           rdf:resource="http://purl.org/dc/dcmitype/StillImage" />
        <cc:license
           rdf:resource="http://web.resource.org/cc/PublicDomain" />
      </cc:Work>
      <cc:License
         rdf:about="http://web.resource.org/cc/PublicDomain">
        <cc:permits
           rdf:resource="http://web.resource.org/cc/Reproduction" />
        <cc:permits
           rdf:resource="http://web.resource.org/cc/Distribution" />
        <cc:permits
           rdf:resource="http://web.resource.org/cc/DerivativeWorks" />
      </cc:License>
    </rdf:RDF>
  </metadata>
  <sodipodi:namedview
     inkscape:window-height="553"
     inkscape:window-width="822"
     inkscape:pageshadow="2"
     inkscape:pageopacity="0.0"
     borderopacity="1.0"
     bordercolor="#666666"
     pagecolor="#ffffff"
     id="base"
     inkscape:zoom="0.60318285"
     inkscape:cx="229.3653"
     inkscape:cy="244.53613"
     inkscape:window-x="10"
     inkscape:window-y="75"
     inkscape:current-layer="svg2"
     showgrid="false"
     inkscape:window-maximized="0" />
  <defs
     id="defs4">
    <marker
       id="ArrowEnd"
       viewBox="0 0 10 10"
       refX="0"
       refY="5"
       markerUnits="strokeWidth"
       markerWidth="4"
       markerHeight="3"
       orient="auto">
      <path
         d="M 0,0 10.666667,5.3333333 0,10.666667 Z"
         id="path7"
         inkscape:connector-curvature="0"
         style="stroke-width:1.06666672" />
    </marker>
    <marker
       id="ArrowStart"
       viewBox="0 0 10 10"
       refX="10"
       refY="5"
       markerUnits="strokeWidth"
       markerWidth="4"
       markerHeight="3"
       orient="auto">
      <path
         d="M 10.666667,0 0,5.3333333 10.666667,10.666667 Z"
         id="path10"
         inkscape:connector-curvature="0"
         style="stroke-width:1.06666672" />
    </marker>
  </defs>
  <g
     id="g12"
     transform="matrix(14.04287,0,0,14.04287,0,0.09740667)">
    <path
       style="fill:#000000;stroke:none;stroke-width:1.06666672"
       d="m 0,0.00423178 v 0.63789089 c 1.8453333,0 2.1408,0 2.1408,1.19146663 V 16.187733 C 2.1408,17.3792 1.8495893,17.3792 0,17.3792 v 0.637867 h 9.0624 c 3.370667,0 5.5584,-2.4 5.5584,-4.8 0,-2.375467 -2.1632,-4.4043097 -4.9792,-4.5920003 C 12.1664,8.1258453 13.9328,6.4384107 13.9328,4.434112 13.9328,2.2464213 11.774933,0 8.3744,0 Z M 3.8495893,8.434112 V 1.6842453 c 0,-0.9002613 0.050144,-1.03359463 1.099744,-1.03359463 H 8.304 c 2.590933,0 3.745067,2.11627203 3.745067,3.75788263 0,2.0128214 -1.600011,4.0255787 -4.4288003,4.0255787 z M 4.9493333,17.392 C 3.904,17.392 3.8538667,17.258667 3.8538667,16.3584 V 8.8628907 h 4.845856 c 2.6954773,0 4.0085443,2.4171093 4.0085443,4.3584423 0,1.937067 -1.492267,4.170667 -4.3466777,4.170667"
       id="path14"
       inkscape:connector-curvature="0" />
    <path
       style="fill:#000000;stroke:none;stroke-width:1.06666672"
       d="m 19.637333,6.3968107 c 0,-1.13392 0.133334,-1.2672534 2.045867,-1.2672534 v -0.637824 c -0.896,0.025589 -2.270933,0.080011 -2.958933,0.080011 -0.686934,0 -2.061867,-0.050133 -2.957867,-0.080011 v 0.637824 c 1.825067,0 1.954133,0.1333334 1.954133,1.2672534 V 16.1216 c 0,1.1328 -0.1248,1.266133 -1.954133,1.266133 V 18.0256 c 0.896,-0.0256 2.270933,-0.07467 2.957867,-0.07467 0.688,0 2.058666,0.04907 2.958933,0.07467 v -0.637867 c -1.912533,0 -2.045867,-0.129066 -2.045867,-1.266133"
       id="path16"
       inkscape:connector-curvature="0" />
    <path
       style="fill:#000000;stroke:none;stroke-width:1.06666672"
       d="M 23.2,4.4842453 V 5.121024 c 1.745067,0 1.874133,0.1589867 1.874133,1.2416107 v 9.7792323 c 0,1.083733 -0.129066,1.2416 -1.874133,1.2416 v 0.637866 h 7.9744 c 2.929067,0 4.779733,-1.792 4.779733,-3.633066 0,-1.713067 -1.691733,-3.162667 -3.988266,-3.450667 1.8752,-0.391509 3.3792,-1.5786773 3.3792,-3.1082987 0,-1.6575573 -1.845334,-3.345056 -4.724267,-3.345056 z m 3.582933,6.1866877 V 6.2591787 c 0,-1.0506454 0.133334,-1.1296214 1.066667,-1.1296214 h 2.562133 c 2.429867,0 2.829867,2.0501974 2.829867,2.679488 0,0.945056 -0.692267,2.8618877 -3.470933,2.8618877 z m 0,0.533334 h 3.966934 c 2.245333,0 2.962133,2.034133 2.962133,3.1584 0,1.204266 -0.8704,3.025066 -3.278933,3.025066 h -2.592 c -0.9248,0 -1.053867,-0.07893 -1.053867,-1.149866"
       id="path18"
       inkscape:connector-curvature="0" />
    <path
       style="fill:#000000;stroke:none;stroke-width:1.06666672"
       d="M 51.869867,0.05013024 H 36.616533 L 36.170667,5.892256 h 0.474666 c 0.341334,-4.375456 0.7168,-5.14134507 4.8128,-5.14134507 0.474667,0 1.245867,0 1.458134,0 C 43.4208,0.82988267 43.4208,1.150912 43.4208,1.7589227 V 16.1376 c 0,0.954667 -0.08,1.245867 -2.305067,1.245867 h -0.749866 v 0.637866 c 1.2672,-0.02453 2.587733,-0.05013 3.883733,-0.05013 1.291733,0 2.616533,0.0256 3.882667,0.05013 V 17.383467 H 47.3952 c -2.192,0 -2.270933,-0.2912 -2.270933,-1.245867 V 1.7589227 c 0,-0.5834667 0,-0.9002635 0.475733,-1.00801177 0.208,0 0.974933,0 1.4496,0 4.0416,0 4.437333,0.76159037 4.778667,5.14134507 H 52.304"
       id="path20"
       inkscape:connector-curvature="0" />
    <path
       style="fill:#000000;stroke:none;stroke-width:1.06666672"
       d="m 65.0208,19.341867 h -0.475733 c -0.5792,3.9168 -0.920534,6.045866 -5.566934,6.045866 H 55.312 c -1.053867,0 -1.104,-0.133333 -1.104,-1.041066 V 16.9632 h 2.491733 c 2.491734,0 2.728534,0.912 2.728534,3.141333 h 0.4256 v -6.8704 h -0.4256 c 0,2.190934 -0.2368,3.086934 -2.728534,3.086934 H 54.208 V 9.7749333 c 0,-0.890688 0.05013,-1.0240213 1.104,-1.0240213 h 3.6128 c 4.087467,0 4.562133,1.624544 4.933333,5.115755 H 64.3328 L 63.6992,8.0255893 H 50.324267 V 8.750912 c 1.870933,0 2.170666,0 2.170666,1.1872427 V 24.192 c 0,1.1872 -0.295466,1.1872 -2.170666,1.1872 v 0.637867 H 64.0704"
       id="path22"
       inkscape:connector-curvature="0" />
    <path
       style="fill:#000000;stroke:none;stroke-width:1.06666672"
       d="M 72.245333,8.0255893 76.1536,2.375456 C 76.545067,1.820768 77.3408,0.6794272 79.508267,0.65065067 V 0.01276043 c -0.6048,0.05013024 -1.608534,0.05013024 -2.242134,0.05013024 -0.8704,0 -1.954133,0 -2.612266,-0.05013024 v 0.63789024 c 0.845866,0.0789067 1.053866,0.60800533 1.053866,1.03359463 0,0.3157547 -0.129066,0.5290987 -0.3168,0.7914667 L 71.904,7.533856 67.995733,1.813344 C 67.812267,1.5253227 67.786667,1.4421227 67.786667,1.3632213 c 0,-0.2378986 0.288,-0.68802557 1.162666,-0.71257063 V 0.01276043 c -0.845866,0.05013024 -2.1376,0.05013024 -3.008,0.05013024 -0.683733,0 -2.004266,0 -2.642133,-0.05013024 v 0.63789024 c 1.450667,0 1.925333,0.0544277 2.5088,0.87467203 l 5.095467,7.4837226 -4.5952,6.7125547 C 65.1744,17.3632 63.458133,17.392 62.9536,17.392 v 0.637867 c 0.603733,-0.05013 1.608533,-0.05013 2.242133,-0.05013 0.712534,0 1.954134,0 2.612267,0.05013 V 17.392 c -0.817067,-0.07893 -1.053867,-0.608 -1.053867,-1.0336 0,-0.341333 0.129067,-0.529067 0.2624,-0.7168 l 4.225067,-6.1664 4.5952,6.754133 c 0.208,0.292267 0.208,0.3712 0.208,0.450134 0,0.208 -0.2368,0.6624 -1.1616,0.7168 v 0.637866 c 0.845867,-0.05013 2.1376,-0.05013 3.008,-0.05013 0.683733,0 2.004267,0 2.645333,0.05013 v -0.637866 c -1.691733,0 -1.9584,-0.129067 -2.4832,-0.874667"
       id="path24"
       inkscape:connector-curvature="0" />
  </g>
</svg>
