<?xml version="1.0" encoding="utf-8"?>
<!-- Generator: Adobe Illustrator 16.0.3, SVG Export Plug-In . SVG Version: 6.00 Build 0)  -->
<!DOCTYPE svg PUBLIC "-//W3C//DTD SVG 1.1//EN" "http://www.w3.org/Graphics/SVG/1.1/DTD/svg11.dtd">
<svg version="1.1" id="Layer_3" xmlns="http://www.w3.org/2000/svg" xmlns:xlink="http://www.w3.org/1999/xlink" x="0px" y="0px"
	 width="256.957px" height="256px" viewBox="0 0 256.957 256" enable-background="new 0 0 256.957 256" xml:space="preserve">
<g>
	<path fill="#D8D9DA" d="M23.248,69.781h35.547c16.197,0,27.955,2.305,35.273,6.914c7.317,4.609,10.977,11.941,10.977,21.992
		c0,6.824-1.602,12.422-4.805,16.797s-7.461,7.006-12.773,7.891v0.781c7.239,1.615,12.461,4.636,15.664,9.063
		c3.203,4.428,4.805,10.313,4.805,17.656c0,10.418-3.764,18.543-11.289,24.375C89.12,181.084,78.898,184,65.982,184H23.248V69.781z
		 M47.467,115.016h14.063c6.563,0,11.314-1.016,14.258-3.047c2.942-2.031,4.414-5.391,4.414-10.078c0-4.375-1.602-7.512-4.805-9.414
		c-3.203-1.9-8.269-2.852-15.195-2.852H47.467V115.016z M47.467,134.234V164h15.781c6.666,0,11.588-1.275,14.766-3.828
		c3.176-2.551,4.766-6.457,4.766-11.719c0-9.479-6.771-14.219-20.313-14.219H47.467z"/>
	<path fill="#D8D9DA" d="M232.076,184h-30.781l-49.688-86.406h-0.703c0.988,15.261,1.484,26.146,1.484,32.656V184h-21.641V69.781
		h30.547l49.609,85.547h0.547c-0.781-14.844-1.172-25.338-1.172-31.484V69.781h21.797V184z"/>
</g>
<g>
	<path fill="none" stroke="#D8D9DA" stroke-width="15.1399" stroke-miterlimit="10" d="M247.755,191.947
		c0,30.718-25.133,55.851-55.851,55.851H63.42c-30.718,0-55.85-25.133-55.85-55.851V63.463c0-30.718,25.132-55.85,55.85-55.85
		h128.484c30.718,0,55.851,25.132,55.851,55.85V191.947z"/>
</g>
</svg>
